# Rhino

mtllib walls.mtl
o object_1
usemtl diffuse_Black
v -50 -3 0
v -50 -3 -1
v -50 10 0
v -50 10 -1
v -48 10 0
v -48 10 -1
v -48 -3 0
v -48 -3 -1
vt 0 0
vt 0 0.59999966621398926
vt 0.43333333730697632 0
vt 0.43333333730697632 0.59999966621398926
vt 0.43333333730697632 0
vt 0.43333333730697632 0.59999966621398926
vt 0.5 0
vt 0.5 0.59999966621398926
vt 0.5 0
vt 0.5 0.59999966621398926
vt 0.93333333730697632 0
vt 0.93333333730697632 0.59999966621398926
vt 0.93333333730697632 0
vt 0.93333333730697632 0.59999966621398926
vt 1 0
vt 1 0.59999966621398926
vt 0 1
vt 0.43333333730697632 1
vt 0.43333333730697632 0.60000026226043701
vt 0 0.60000026226043701
vt 0.56666666269302368 0.60000026226043701
vt 1 0.60000026226043701
vt 1 1
vt 0.56666666269302368 1
vn -1 0 0
vn -1 0 0
vn -1 0 0
vn -1 0 0
vn 0 1 0
vn 0 1 0
vn 0 1 0
vn 0 1 0
vn 1 0 0
vn 1 0 0
vn 1 0 0
vn 1 0 0
vn 0 -1 0
vn 0 -1 0
vn 0 -1 0
vn 0 -1 0
vn 0 0 1
vn 0 0 1
vn 0 0 1
vn 0 0 1
vn 0 0 -1
vn 0 0 -1
vn 0 0 -1
vn 0 0 -1
f 3/18/18 1/17/17 7/20/20 5/19/19
f 8/24/24 2/21/21 4/22/22 6/23/23
f 1/1/1 3/3/3 4/4/4 2/2/2
f 3/5/5 5/7/7 6/8/8 4/6/6
f 5/9/9 7/11/11 8/12/12 6/10/10
f 7/13/13 1/15/15 2/16/16 8/14/14
o object_2
usemtl diffuse_Black
v -47.726169586181641 -3.9852375984191895 0
v -47.726169586181641 -3.9852375984191895 -0.83885109424591064
v -47.726169586181641 8.9891948699951172 0
v -47.726169586181641 8.9891948699951172 -0.83885109424591064
v -45.729690551757813 8.9891948699951172 0
v -45.729690551757813 8.9891948699951172 -0.83885109424591064
v -45.729690551757813 -3.9852375984191895 0
v -45.729690551757813 -3.9852375984191895 -0.83885109424591064
vt 0 0
vt 0 0.58680462837219238
vt 0.43332132697105408 0
vt 0.43332132697105408 0.58680462837219238
vt 0.43332132697105408 0
vt 0.43332132697105408 0.58680462837219238
vt 0.5 0
vt 0.5 0.58680462837219238
vt 0.5 0
vt 0.5 0.58680462837219238
vt 0.93332129716873169 0
vt 0.93332129716873169 0.58680462837219238
vt 0.93332129716873169 0
vt 0.93332129716873169 0.58680462837219238
vt 1 0
vt 1 0.58680462837219238
vt 0 1
vt 0.43332132697105408 1
vt 0.43332132697105408 0.58680522441864014
vt 0 0.58680522441864014
vt 0.56667870283126831 0.58680522441864014
vt 1 0.58680522441864014
vt 1 1
vt 0.56667870283126831 1
vn -1 0 0
vn -1 0 0
vn -1 0 0
vn -1 0 0
vn 0 1 0
vn 0 1 0
vn 0 1 0
vn 0 1 0
vn 1 0 0
vn 1 0 0
vn 1 0 0
vn 1 0 0
vn 0 -1 0
vn 0 -1 0
vn 0 -1 0
vn 0 -1 0
vn 0 0 1
vn 0 0 1
vn 0 0 1
vn 0 0 1
vn 0 0 -1
vn 0 0 -1
vn 0 0 -1
vn 0 0 -1
f 11/42/42 9/41/41 15/44/44 13/43/43
f 16/48/48 10/45/45 12/46/46 14/47/47
f 9/25/25 11/27/27 12/28/28 10/26/26
f 11/29/29 13/31/31 14/32/32 12/30/30
f 13/33/33 15/35/35 16/36/36 14/34/34
f 15/37/37 9/39/39 10/40/40 16/38/38
o object_3
usemtl diffuse_Black
v -50.000682830810547 -3.0517473220825195 0.38459384441375732
v -50.000682830810547 -3.0517473220825195 -0.29794475436210632
v -50.632034301757813 -1.579893946647644 0.38459384441375732
v -50.632034301757813 -1.579893946647644 -0.29794475436210632
v -36.840461730957031 4.3360285758972168 0.38459384441375732
v -36.840461730957031 4.3360285758972168 -0.29794475436210632
v -36.2091064453125 2.8641750812530518 0.38459384441375732
v -36.2091064453125 2.8641750812530518 -0.29794475436210632
vt 0 0
vt 0 0.58782804012298584
vt 0.04821503534913063 0
vt 0.04821503534913063 0.58782804012298584
vt 0.04821503534913063 0
vt 0.04821503534913063 0.58782804012298584
vt 0.5 0
vt 0.5 0.58782804012298584
vt 0.5 0
vt 0.5 0.58782804012298584
vt 0.54821503162384033 0
vt 0.54821503162384033 0.58782804012298584
vt 0.54821503162384033 0
vt 0.54821503162384033 0.58782804012298584
vt 1 0
vt 1 0.58782804012298584
vt 0.45178496837615967 1
vt 0.45178496837615967 0.58782863616943359
vt 0 0.58782863616943359
vt 0 1
vt 1 0.58782863616943359
vt 1 1
vt 0.54821503162384033 1
vt 0.54821503162384033 0.58782863616943359
vn -0.91901838779449463 -0.39421471953392029 0
vn -0.91901838779449463 -0.39421471953392029 0
vn -0.91901838779449463 -0.39421471953392029 0
vn -0.91901838779449463 -0.39421471953392029 0
vn -0.39421471953392029 0.91901838779449463 0
vn -0.39421471953392029 0.91901838779449463 0
vn -0.39421471953392029 0.91901838779449463 0
vn -0.39421471953392029 0.91901838779449463 0
vn 0.91901838779449463 0.39421471953392029 0
vn 0.91901838779449463 0.39421471953392029 0
vn 0.91901838779449463 0.39421471953392029 0
vn 0.91901838779449463 0.39421471953392029 0
vn 0.39421471953392029 -0.91901838779449463 0
vn 0.39421471953392029 -0.91901838779449463 0
vn 0.39421471953392029 -0.91901838779449463 0
vn 0.39421471953392029 -0.91901838779449463 0
vn 0 0 1
vn 0 0 1
vn 0 0 1
vn 0 0 1
vn 0 0 -1
vn 0 0 -1
vn 0 0 -1
vn 0 0 -1
f 19/66/66 17/65/65 23/68/68 21/67/67
f 24/72/72 18/69/69 20/70/70 22/71/71
f 17/49/49 19/51/51 20/52/52 18/50/50
f 19/53/53 21/55/55 22/56/56 20/54/54
f 21/57/57 23/59/59 24/60/60 22/58/58
f 23/61/61 17/63/63 18/64/64 24/62/62
o object_4
usemtl diffuse_Black
v -51.173049926757813 6.6004738807678223 0.38459384441375732
v -51.173049926757813 6.6004738807678223 -0.29794475436210632
v -50.942340850830078 8.1853189468383789 0.38459384441375732
v -50.942340850830078 8.1853189468383789 -0.29794475436210632
v -36.092010498046875 6.0235295295715332 0.38459384441375732
v -36.092010498046875 6.0235295295715332 -0.29794475436210632
v -36.322719573974609 4.4386844635009766 0.38459384441375732
v -36.322719573974609 4.4386844635009766 -0.29794475436210632
vt 0 0
vt 0 0.58782804012298584
vt 0.04821503534913063 0
vt 0.04821503534913063 0.58782804012298584
vt 0.04821503534913063 0
vt 0.04821503534913063 0.58782804012298584
vt 0.5 0
vt 0.5 0.58782804012298584
vt 0.5 0
vt 0.5 0.58782804012298584
vt 0.54821503162384033 0
vt 0.54821503162384033 0.58782804012298584
vt 0.54821503162384033 0
vt 0.54821503162384033 0.58782804012298584
vt 1 0
vt 1 0.58782804012298584
vt 0.45178496837615967 1
vt 0.45178496837615967 0.58782863616943359
vt 0 0.58782863616943359
vt 0 1
vt 1 0.58782863616943359
vt 1 1
vt 0.54821503162384033 1
vt 0.54821503162384033 0.58782863616943359
vn -0.98956990242004395 0.14405347406864166 0
vn -0.98956990242004395 0.14405347406864166 0
vn -0.98956990242004395 0.14405347406864166 0
vn -0.98956990242004395 0.14405347406864166 0
vn 0.14405347406864166 0.98956990242004395 0
vn 0.14405347406864166 0.98956990242004395 0
vn 0.14405347406864166 0.98956990242004395 0
vn 0.14405347406864166 0.98956990242004395 0
vn 0.98956990242004395 -0.14405347406864166 0
vn 0.98956990242004395 -0.14405347406864166 0
vn 0.98956990242004395 -0.14405347406864166 0
vn 0.98956990242004395 -0.14405347406864166 0
vn -0.14405347406864166 -0.98956990242004395 0
vn -0.14405347406864166 -0.98956990242004395 0
vn -0.14405347406864166 -0.98956990242004395 0
vn -0.14405347406864166 -0.98956990242004395 0
vn 0 0 1
vn 0 0 1
vn 0 0 1
vn 0 0 1
vn 0 0 -1
vn 0 0 -1
vn 0 0 -1
vn 0 0 -1
f 27/90/90 25/89/89 31/92/92 29/91/91
f 32/96/96 26/93/93 28/94/94 30/95/95
f 25/73/73 27/75/75 28/76/76 26/74/74
f 27/77/77 29/79/79 30/80/80 28/78/78
f 29/81/81 31/83/83 32/84/84 30/82/82
f 31/85/85 25/87/87 26/88/88 32/86/86
o object_5
usemtl diffuse_Black
v -40.983234405517578 -5.0069661140441895 0
v -40.983234405517578 -5.0069661140441895 -0.922893226146698
v -40.983234405517578 8.0045509338378906 0
v -40.983234405517578 8.0045509338378906 -0.922893226146698
v -38.984325408935547 8.0045509338378906 0
v -38.984325408935547 8.0045509338378906 -0.922893226146698
v -38.984325408935547 -5.0069661140441895 0
v -38.984325408935547 -5.0069661140441895 -0.922893226146698
vt 0 0
vt 0 0.59377598762512207
vt 0.43341591954231262 0
vt 0.43341591954231262 0.59377598762512207
vt 0.43341591954231262 0
vt 0.43341591954231262 0.59377598762512207
vt 0.5 0
vt 0.5 0.59377598762512207
vt 0.5 0
vt 0.5 0.59377598762512207
vt 0.93341594934463501 0
vt 0.93341594934463501 0.59377598762512207
vt 0.93341594934463501 0
vt 0.93341594934463501 0.59377598762512207
vt 1 0
vt 1 0.59377598762512207
vt 0 1
vt 0.43341591954231262 1
vt 0.43341591954231262 0.59377658367156982
vt 0 0.59377658367156982
vt 0.56658405065536499 0.59377658367156982
vt 1 0.59377658367156982
vt 1 1
vt 0.56658405065536499 1
vn -1 0 0
vn -1 0 0
vn -1 0 0
vn -1 0 0
vn 0 1 0
vn 0 1 0
vn 0 1 0
vn 0 1 0
vn 1 0 0
vn 1 0 0
vn 1 0 0
vn 1 0 0
vn 0 -1 0
vn 0 -1 0
vn 0 -1 0
vn 0 -1 0
vn 0 0 1
vn 0 0 1
vn 0 0 1
vn 0 0 1
vn 0 0 -1
vn 0 0 -1
vn 0 0 -1
vn 0 0 -1
f 35/114/114 33/113/113 39/116/116 37/115/115
f 40/120/120 34/117/117 36/118/118 38/119/119
f 33/97/97 35/99/99 36/100/100 34/98/98
f 35/101/101 37/103/103 38/104/104 36/102/102
f 37/105/105 39/107/107 40/108/108 38/106/106
f 39/109/109 33/111/111 34/112/112 40/110/110
o object_6
usemtl diffuse_Black
v -38.736881256103516 -3.4047119617462158 0
v -38.736881256103516 -3.4047119617462158 -0.77622103691101074
v -38.736881256103516 9.6764707565307617 0
v -38.736881256103516 9.6764707565307617 -0.77622103691101074
v -36.778400421142578 9.6764707565307617 0
v -36.778400421142578 9.6764707565307617 -0.77622103691101074
v -36.778400421142578 -3.4047119617462158 0
v -36.778400421142578 -3.4047119617462158 -0.77622103691101074
vt 0 0
vt 0 0.58269625902175903
vt 0.43488943576812744 0
vt 0.43488943576812744 0.58269625902175903
vt 0.43488943576812744 0
vt 0.43488943576812744 0.58269625902175903
vt 0.5 0
vt 0.5 0.58269625902175903
vt 0.5 0
vt 0.5 0.58269625902175903
vt 0.93488943576812744 0
vt 0.93488943576812744 0.58269625902175903
vt 0.93488943576812744 0
vt 0.93488943576812744 0.58269625902175903
vt 1 0
vt 1 0.58269625902175903
vt 0 1
vt 0.43488943576812744 1
vt 0.43488943576812744 0.58269685506820679
vt 0 0.58269685506820679
vt 0.56511056423187256 0.58269685506820679
vt 1 0.58269685506820679
vt 1 1
vt 0.56511056423187256 1
vn -1 0 0
vn -1 0 0
vn -1 0 0
vn -1 0 0
vn 0 1 0
vn 0 1 0
vn 0 1 0
vn 0 1 0
vn 1 0 0
vn 1 0 0
vn 1 0 0
vn 1 0 0
vn 0 -1 0
vn 0 -1 0
vn 0 -1 0
vn 0 -1 0
vn 0 0 1
vn 0 0 1
vn 0 0 1
vn 0 0 1
vn 0 0 -1
vn 0 0 -1
vn 0 0 -1
vn 0 0 -1
f 43/138/138 41/137/137 47/140/140 45/139/139
f 48/144/144 42/141/141 44/142/142 46/143/143
f 41/121/121 43/123/123 44/124/124 42/122/122
f 43/125/125 45/127/127 46/128/128 44/126/126
f 45/129/129 47/131/131 48/132/132 46/130/130
f 47/133/133 41/135/135 42/136/136 48/134/134
o object_7
usemtl diffuse_Black
v -45.249305725097656 -2.9883022308349609 0
v -45.249305725097656 -2.9883022308349609 -0.89487916231155396
v -45.249305725097656 10.005388259887695 0
v -45.249305725097656 10.005388259887695 -0.89487916231155396
v -43.268772125244141 10.005388259887695 0
v -43.268772125244141 10.005388259887695 -0.89487916231155396
v -43.268772125244141 -2.9883022308349609 0
v -43.268772125244141 -2.9883022308349609 -0.89487916231155396
vt 0 0
vt 0 0.59214228391647339
vt 0.43386858701705933 0
vt 0.43386858701705933 0.59214228391647339
vt 0.43386858701705933 0
vt 0.43386858701705933 0.59214228391647339
vt 0.5 0
vt 0.5 0.59214228391647339
vt 0.5 0
vt 0.5 0.59214228391647339
vt 0.93386858701705933 0
vt 0.93386858701705933 0.59214228391647339
vt 0.93386858701705933 0
vt 0.93386858701705933 0.59214228391647339
vt 1 0
vt 1 0.59214228391647339
vt 0 1
vt 0.43386858701705933 1
vt 0.43386858701705933 0.59214287996292114
vt 0 0.59214287996292114
vt 0.56613141298294067 0.59214287996292114
vt 1 0.59214287996292114
vt 1 1
vt 0.56613141298294067 1
vn -1 0 0
vn -1 0 0
vn -1 0 0
vn -1 0 0
vn 0 1 0
vn 0 1 0
vn 0 1 0
vn 0 1 0
vn 1 0 0
vn 1 0 0
vn 1 0 0
vn 1 0 0
vn 0 -1 0
vn 0 -1 0
vn 0 -1 0
vn 0 -1 0
vn 0 0 1
vn 0 0 1
vn 0 0 1
vn 0 0 1
vn 0 0 -1
vn 0 0 -1
vn 0 0 -1
vn 0 0 -1
f 51/162/162 49/161/161 55/164/164 53/163/163
f 56/168/168 50/165/165 52/166/166 54/167/167
f 49/145/145 51/147/147 52/148/148 50/146/146
f 51/149/149 53/151/151 54/152/152 52/150/150
f 53/153/153 55/155/155 56/156/156 54/154/154
f 55/157/157 49/159/159 50/160/160 56/158/158
o object_8
usemtl diffuse_Black
v -43.033329010009766 -3.9916496276855469 0
v -43.033329010009766 -3.9916496276855469 -0.78282296657562256
v -43.033329010009766 8.999420166015625 0
v -43.033329010009766 8.999420166015625 -0.78282296657562256
v -41.049015045166016 8.999420166015625 0
v -41.049015045166016 8.999420166015625 -0.78282296657562256
v -41.049015045166016 -3.9916496276855469 0
v -41.049015045166016 -3.9916496276855469 -0.78282296657562256
vt 0 0
vt 0 0.58237683773040771
vt 0.43374741077423096 0
vt 0.43374741077423096 0.58237683773040771
vt 0.43374741077423096 0
vt 0.43374741077423096 0.58237683773040771
vt 0.5 0
vt 0.5 0.58237683773040771
vt 0.5 0
vt 0.5 0.58237683773040771
vt 0.93374741077423096 0
vt 0.93374741077423096 0.58237683773040771
vt 0.93374741077423096 0
vt 0.93374741077423096 0.58237683773040771
vt 1 0
vt 1 0.58237683773040771
vt 0 1
vt 0.43374741077423096 1
vt 0.43374741077423096 0.58237743377685547
vt 0 0.58237743377685547
vt 0.56625258922576904 0.58237743377685547
vt 1 0.58237743377685547
vt 1 1
vt 0.56625258922576904 1
vn -1 0 0
vn -1 0 0
vn -1 0 0
vn -1 0 0
vn 0 1 0
vn 0 1 0
vn 0 1 0
vn 0 1 0
vn 1 0 0
vn 1 0 0
vn 1 0 0
vn 1 0 0
vn 0 -1 0
vn 0 -1 0
vn 0 -1 0
vn 0 -1 0
vn 0 0 1
vn 0 0 1
vn 0 0 1
vn 0 0 1
vn 0 0 -1
vn 0 0 -1
vn 0 0 -1
vn 0 0 -1
f 59/186/186 57/185/185 63/188/188 61/187/187
f 64/192/192 58/189/189 60/190/190 62/191/191
f 57/169/169 59/171/171 60/172/172 58/170/170
f 59/173/173 61/175/175 62/176/176 60/174/174
f 61/177/177 63/179/179 64/180/180 62/178/178
f 63/181/181 57/183/183 58/184/184 64/182/182
